%TF.GenerationSoftware,KiCad,Pcbnew,8.0.2+b1*%
%TF.CreationDate,2025-03-29T04:57:43+02:00*%
%TF.ProjectId,3dglassbox,3364676c-6173-4736-926f-782e6b696361,rev?*%
%TF.SameCoordinates,Original*%
%TF.FileFunction,Soldermask,Top*%
%TF.FilePolarity,Negative*%
%FSLAX46Y46*%
G04 Gerber Fmt 4.6, Leading zero omitted, Abs format (unit mm)*
G04 Created by KiCad (PCBNEW 8.0.2+b1) date 2025-03-29 04:57:43*
%MOMM*%
%LPD*%
G01*
G04 APERTURE LIST*
G04 Aperture macros list*
%AMRoundRect*
0 Rectangle with rounded corners*
0 $1 Rounding radius*
0 $2 $3 $4 $5 $6 $7 $8 $9 X,Y pos of 4 corners*
0 Add a 4 corners polygon primitive as box body*
4,1,4,$2,$3,$4,$5,$6,$7,$8,$9,$2,$3,0*
0 Add four circle primitives for the rounded corners*
1,1,$1+$1,$2,$3*
1,1,$1+$1,$4,$5*
1,1,$1+$1,$6,$7*
1,1,$1+$1,$8,$9*
0 Add four rect primitives between the rounded corners*
20,1,$1+$1,$2,$3,$4,$5,0*
20,1,$1+$1,$4,$5,$6,$7,0*
20,1,$1+$1,$6,$7,$8,$9,0*
20,1,$1+$1,$8,$9,$2,$3,0*%
%AMRotRect*
0 Rectangle, with rotation*
0 The origin of the aperture is its center*
0 $1 length*
0 $2 width*
0 $3 Rotation angle, in degrees counterclockwise*
0 Add horizontal line*
21,1,$1,$2,0,0,$3*%
%AMFreePoly0*
4,1,19,0.550000,-0.750000,0.000000,-0.750000,0.000000,-0.744911,-0.071157,-0.744911,-0.207708,-0.704816,-0.327430,-0.627875,-0.420627,-0.520320,-0.479746,-0.390866,-0.500000,-0.250000,-0.500000,0.250000,-0.479746,0.390866,-0.420627,0.520320,-0.327430,0.627875,-0.207708,0.704816,-0.071157,0.744911,0.000000,0.744911,0.000000,0.750000,0.550000,0.750000,0.550000,-0.750000,0.550000,-0.750000,
$1*%
%AMFreePoly1*
4,1,19,0.000000,0.744911,0.071157,0.744911,0.207708,0.704816,0.327430,0.627875,0.420627,0.520320,0.479746,0.390866,0.500000,0.250000,0.500000,-0.250000,0.479746,-0.390866,0.420627,-0.520320,0.327430,-0.627875,0.207708,-0.704816,0.071157,-0.744911,0.000000,-0.744911,0.000000,-0.750000,-0.550000,-0.750000,-0.550000,0.750000,0.000000,0.750000,0.000000,0.744911,0.000000,0.744911,
$1*%
G04 Aperture macros list end*
%ADD10RoundRect,0.250000X0.350000X-0.850000X0.350000X0.850000X-0.350000X0.850000X-0.350000X-0.850000X0*%
%ADD11RoundRect,0.249997X2.650003X-2.950003X2.650003X2.950003X-2.650003X2.950003X-2.650003X-2.950003X0*%
%ADD12R,1.300000X1.550000*%
%ADD13C,6.400000*%
%ADD14RoundRect,0.250000X-0.350000X-0.450000X0.350000X-0.450000X0.350000X0.450000X-0.350000X0.450000X0*%
%ADD15R,1.000000X0.800000*%
%ADD16C,0.900000*%
%ADD17R,0.700000X1.500000*%
%ADD18RotRect,1.800000X1.800000X65.000000*%
%ADD19C,1.800000*%
%ADD20RotRect,1.800000X1.800000X100.000000*%
%ADD21RoundRect,0.150000X-0.587500X-0.150000X0.587500X-0.150000X0.587500X0.150000X-0.587500X0.150000X0*%
%ADD22RoundRect,0.250000X0.350000X0.450000X-0.350000X0.450000X-0.350000X-0.450000X0.350000X-0.450000X0*%
%ADD23RoundRect,0.250000X-0.475000X0.337500X-0.475000X-0.337500X0.475000X-0.337500X0.475000X0.337500X0*%
%ADD24RotRect,1.800000X1.800000X95.000000*%
%ADD25RoundRect,0.250000X1.050000X0.550000X-1.050000X0.550000X-1.050000X-0.550000X1.050000X-0.550000X0*%
%ADD26C,3.500000*%
%ADD27O,2.000000X3.500000*%
%ADD28C,4.000000*%
%ADD29R,1.600000X1.600000*%
%ADD30C,1.600000*%
%ADD31RoundRect,0.250000X-0.600000X-0.600000X0.600000X-0.600000X0.600000X0.600000X-0.600000X0.600000X0*%
%ADD32C,1.700000*%
%ADD33RoundRect,0.150000X0.150000X-0.825000X0.150000X0.825000X-0.150000X0.825000X-0.150000X-0.825000X0*%
%ADD34R,1.800000X1.800000*%
%ADD35R,3.500000X3.500000*%
%ADD36RoundRect,0.750000X-1.000000X0.750000X-1.000000X-0.750000X1.000000X-0.750000X1.000000X0.750000X0*%
%ADD37RoundRect,0.875000X-0.875000X0.875000X-0.875000X-0.875000X0.875000X-0.875000X0.875000X0.875000X0*%
%ADD38C,2.500000*%
%ADD39RotRect,1.800000X1.800000X80.000000*%
%ADD40RotRect,1.800000X1.800000X105.000000*%
%ADD41RotRect,1.800000X1.800000X110.000000*%
%ADD42FreePoly0,90.000000*%
%ADD43R,1.500000X1.000000*%
%ADD44FreePoly1,90.000000*%
%ADD45FreePoly0,270.000000*%
%ADD46FreePoly1,270.000000*%
%ADD47RotRect,1.800000X1.800000X115.000000*%
%ADD48RotRect,1.800000X1.800000X120.000000*%
%ADD49RoundRect,0.250000X-1.050000X-0.550000X1.050000X-0.550000X1.050000X0.550000X-1.050000X0.550000X0*%
%ADD50RotRect,1.800000X1.800000X125.000000*%
%ADD51O,3.500000X2.200000*%
%ADD52R,2.500000X1.500000*%
%ADD53O,2.500000X1.500000*%
%ADD54RotRect,1.800000X1.800000X75.000000*%
%ADD55RoundRect,0.250000X-0.337500X-0.475000X0.337500X-0.475000X0.337500X0.475000X-0.337500X0.475000X0*%
%ADD56C,1.200000*%
%ADD57O,1.200000X2.200000*%
%ADD58O,1.600000X2.300000*%
%ADD59O,2.200000X1.200000*%
%ADD60O,1.600000X2.500000*%
%ADD61RotRect,1.800000X1.800000X85.000000*%
%ADD62RotRect,1.800000X1.800000X55.000000*%
%ADD63RoundRect,0.250000X1.500000X0.650000X-1.500000X0.650000X-1.500000X-0.650000X1.500000X-0.650000X0*%
%ADD64RotRect,1.800000X1.800000X60.000000*%
%ADD65RotRect,1.800000X1.800000X70.000000*%
G04 APERTURE END LIST*
D10*
%TO.C,U1*%
X128660000Y-80690000D03*
X130940000Y-80690000D03*
D11*
X130940000Y-74390000D03*
D10*
X133220000Y-80690000D03*
%TD*%
D12*
%TO.C,SW6*%
X159440000Y-83165000D03*
X159440000Y-75215000D03*
X163940000Y-83165000D03*
X163940000Y-75215000D03*
%TD*%
D13*
%TO.C,H4*%
X174940000Y-149190000D03*
%TD*%
D14*
%TO.C,R20*%
X142440000Y-126690000D03*
X144440000Y-126690000D03*
%TD*%
D15*
%TO.C,SW2*%
X169590000Y-57470000D03*
X169590000Y-55260000D03*
D16*
X167440000Y-56360000D03*
X164440000Y-56360000D03*
D15*
X162290000Y-57470000D03*
X162290000Y-55260000D03*
D17*
X168190000Y-58120000D03*
X165190000Y-58120000D03*
X163690000Y-58120000D03*
%TD*%
D18*
%TO.C,D2*%
X174176408Y-73918989D03*
D19*
X175249858Y-71616967D03*
%TD*%
D15*
%TO.C,SW4*%
X154590000Y-57470000D03*
X154590000Y-55260000D03*
D16*
X152440000Y-56360000D03*
X149440000Y-56360000D03*
D15*
X147290000Y-57470000D03*
X147290000Y-55260000D03*
D17*
X153190000Y-58120000D03*
X150190000Y-58120000D03*
X148690000Y-58120000D03*
%TD*%
D20*
%TO.C,D6*%
X169449978Y-119951567D03*
D19*
X169008912Y-117450155D03*
%TD*%
D21*
%TO.C,Q1*%
X153752500Y-68740000D03*
X153752500Y-70640000D03*
X155627500Y-69690000D03*
%TD*%
D22*
%TO.C,R16*%
X162690000Y-144440000D03*
X160690000Y-144440000D03*
%TD*%
%TO.C,R13*%
X162690000Y-116190000D03*
X160690000Y-116190000D03*
%TD*%
D23*
%TO.C,C4*%
X152440000Y-85152500D03*
X152440000Y-87227500D03*
%TD*%
D24*
%TO.C,D13*%
X168559695Y-114221460D03*
D19*
X168338319Y-111691124D03*
%TD*%
D25*
%TO.C,C1*%
X136740000Y-87390000D03*
X133140000Y-87390000D03*
%TD*%
D22*
%TO.C,R15*%
X162690000Y-138440000D03*
X160690000Y-138440000D03*
%TD*%
D13*
%TO.C,H3*%
X174940000Y-59190000D03*
%TD*%
D22*
%TO.C,R5*%
X162690000Y-113190000D03*
X160690000Y-113190000D03*
%TD*%
D26*
%TO.C,J6*%
X106752500Y-115340000D03*
D27*
X105952500Y-122190000D03*
D26*
X106752500Y-129040000D03*
D19*
X109552500Y-125440000D03*
X109552500Y-118940000D03*
X112352500Y-121290000D03*
%TD*%
D13*
%TO.C,H2*%
X122940000Y-149190000D03*
%TD*%
D28*
%TO.C,J2*%
X110350331Y-81845000D03*
X110350331Y-106845000D03*
D29*
X111770331Y-88805000D03*
D30*
X111770331Y-91575000D03*
X111770331Y-94345000D03*
X111770331Y-97115000D03*
X111770331Y-99885000D03*
X108930331Y-90190000D03*
X108930331Y-92960000D03*
X108930331Y-95730000D03*
X108930331Y-98500000D03*
%TD*%
D31*
%TO.C,J4*%
X125187500Y-104395000D03*
D32*
X127727500Y-104395000D03*
X125187500Y-106935000D03*
X127727500Y-106935000D03*
X125187500Y-109475000D03*
X127727500Y-109475000D03*
%TD*%
D23*
%TO.C,C3*%
X142440000Y-83652500D03*
X142440000Y-85727500D03*
%TD*%
D33*
%TO.C,U3*%
X152285000Y-138915000D03*
X153555000Y-138915000D03*
X154825000Y-138915000D03*
X156095000Y-138915000D03*
X156095000Y-133965000D03*
X154825000Y-133965000D03*
X153555000Y-133965000D03*
X152285000Y-133965000D03*
%TD*%
D34*
%TO.C,D12*%
X168190000Y-102730001D03*
D19*
X168190000Y-100190000D03*
%TD*%
D22*
%TO.C,R14*%
X162690000Y-122190000D03*
X160690000Y-122190000D03*
%TD*%
D12*
%TO.C,SW5*%
X159440000Y-108165000D03*
X159440000Y-100215000D03*
X163940000Y-108165000D03*
X163940000Y-100215000D03*
%TD*%
D26*
%TO.C,J1*%
X106752500Y-59840000D03*
D27*
X105952500Y-66690000D03*
D26*
X106752500Y-73540000D03*
D19*
X109552500Y-69940000D03*
X109552500Y-63440000D03*
X112352500Y-65790000D03*
%TD*%
D35*
%TO.C,J3*%
X135440000Y-65190000D03*
D36*
X135440000Y-59190000D03*
D37*
X130740000Y-62190000D03*
%TD*%
D22*
%TO.C,R3*%
X162690000Y-87690000D03*
X160690000Y-87690000D03*
%TD*%
D38*
%TO.C,B1*%
X147440000Y-74940000D03*
%TD*%
D39*
%TO.C,D11*%
X169015858Y-90970455D03*
D19*
X169456924Y-88469043D03*
%TD*%
D40*
%TO.C,D14*%
X170859784Y-125668572D03*
D19*
X170202384Y-123215120D03*
%TD*%
D34*
%TO.C,D18*%
X161690000Y-130465000D03*
D19*
X161690000Y-127925000D03*
%TD*%
D38*
%TO.C,STRSYNC*%
X134440000Y-129190000D03*
%TD*%
D41*
%TO.C,D7*%
X172787894Y-131370824D03*
D19*
X171919163Y-128984005D03*
%TD*%
D22*
%TO.C,R6*%
X162690000Y-119190000D03*
X160690000Y-119190000D03*
%TD*%
%TO.C,R19*%
X155190000Y-142940000D03*
X153190000Y-142940000D03*
%TD*%
D42*
%TO.C,JP1*%
X145690000Y-137740000D03*
D43*
X145690000Y-136440000D03*
D44*
X145690000Y-135140000D03*
%TD*%
D45*
%TO.C,JP2*%
X140690000Y-135140000D03*
D43*
X140690000Y-136440000D03*
D46*
X140690000Y-137740000D03*
%TD*%
D47*
%TO.C,D15*%
X175232953Y-136806782D03*
D19*
X174159503Y-134504760D03*
%TD*%
D38*
%TO.C,B2*%
X125190000Y-119690000D03*
%TD*%
D48*
%TO.C,D8*%
X178043479Y-141975033D03*
D19*
X176773479Y-139775328D03*
%TD*%
D38*
%TO.C,GND*%
X134440000Y-136440000D03*
%TD*%
%TO.C,VCC*%
X142940000Y-74940000D03*
%TD*%
D22*
%TO.C,R12*%
X162690000Y-95940000D03*
X160690000Y-95940000D03*
%TD*%
D34*
%TO.C,D5*%
X168190000Y-108230001D03*
D19*
X168190000Y-105690000D03*
%TD*%
D35*
%TO.C,J7*%
X110875000Y-142190000D03*
D28*
X105850000Y-147215000D03*
X115900000Y-147215000D03*
X105850000Y-137165000D03*
X115900000Y-137165000D03*
%TD*%
D21*
%TO.C,Q2*%
X153752500Y-62740000D03*
X153752500Y-64640000D03*
X155627500Y-63690000D03*
%TD*%
D49*
%TO.C,C2*%
X125140000Y-87390000D03*
X128740000Y-87390000D03*
%TD*%
D22*
%TO.C,R9*%
X162690000Y-66190000D03*
X160690000Y-66190000D03*
%TD*%
D50*
%TO.C,D16*%
X181167866Y-146874295D03*
D19*
X179710982Y-144793649D03*
%TD*%
D38*
%TO.C,B3*%
X147069720Y-95406200D03*
%TD*%
D22*
%TO.C,R11*%
X162690000Y-90440000D03*
X160690000Y-90440000D03*
%TD*%
%TO.C,R4*%
X162690000Y-93190000D03*
X160690000Y-93190000D03*
%TD*%
D51*
%TO.C,SW1*%
X143190000Y-108290000D03*
X143190000Y-100090000D03*
D52*
X143190000Y-106190000D03*
D53*
X143190000Y-104190000D03*
X143190000Y-102190000D03*
%TD*%
D33*
%TO.C,U2*%
X145785000Y-88665000D03*
X147055000Y-88665000D03*
X148325000Y-88665000D03*
X149595000Y-88665000D03*
X149595000Y-83715000D03*
X148325000Y-83715000D03*
X147055000Y-83715000D03*
X145785000Y-83715000D03*
%TD*%
D38*
%TO.C,IRDRV*%
X151940000Y-74940000D03*
%TD*%
D22*
%TO.C,R8*%
X162690000Y-141440000D03*
X160690000Y-141440000D03*
%TD*%
D23*
%TO.C,C6*%
X149440000Y-65652500D03*
X149440000Y-67727500D03*
%TD*%
D54*
%TO.C,D3*%
X170212736Y-85206245D03*
D19*
X170870136Y-82752793D03*
%TD*%
D55*
%TO.C,C5*%
X140402500Y-114690000D03*
X142477500Y-114690000D03*
%TD*%
D22*
%TO.C,R2*%
X162690000Y-68690000D03*
X160690000Y-68690000D03*
%TD*%
D56*
%TO.C,J8*%
X138187260Y-149672873D03*
X138187260Y-152172873D03*
X143187260Y-144672873D03*
X148187260Y-149672873D03*
X148187260Y-152172873D03*
D57*
X138187260Y-144672873D03*
D58*
X140687260Y-144672873D03*
D59*
X143187260Y-149672873D03*
D57*
X148187260Y-144672873D03*
D60*
X145687260Y-144672873D03*
%TD*%
D38*
%TO.C,~{RESET}*%
X129440000Y-119690000D03*
%TD*%
D13*
%TO.C,H1*%
X122940000Y-59190000D03*
%TD*%
D14*
%TO.C,R21*%
X153940000Y-126940000D03*
X155940000Y-126940000D03*
%TD*%
%TO.C,R18*%
X153190000Y-145940000D03*
X155190000Y-145940000D03*
%TD*%
D22*
%TO.C,R10*%
X162690000Y-71190000D03*
X160690000Y-71190000D03*
%TD*%
D61*
%TO.C,D4*%
X168341806Y-96729029D03*
D19*
X168563181Y-94198694D03*
%TD*%
D62*
%TO.C,D1*%
X179733925Y-63633588D03*
D19*
X181190810Y-61552942D03*
%TD*%
D22*
%TO.C,R17*%
X169440000Y-62440000D03*
X167440000Y-62440000D03*
%TD*%
D63*
%TO.C,D17*%
X129440000Y-94690000D03*
X124440000Y-94690000D03*
%TD*%
D55*
%TO.C,C8*%
X153798236Y-130690000D03*
X155873236Y-130690000D03*
%TD*%
D33*
%TO.C,U4*%
X139380000Y-123165000D03*
X140650000Y-123165000D03*
X141920000Y-123165000D03*
X143190000Y-123165000D03*
X144460000Y-123165000D03*
X145730000Y-123165000D03*
X147000000Y-123165000D03*
X147000000Y-118215000D03*
X145730000Y-118215000D03*
X144460000Y-118215000D03*
X143190000Y-118215000D03*
X141920000Y-118215000D03*
X140650000Y-118215000D03*
X139380000Y-118215000D03*
%TD*%
D64*
%TO.C,D9*%
X176693478Y-68650034D03*
D19*
X177963478Y-66450329D03*
%TD*%
D22*
%TO.C,R1*%
X162690000Y-63690000D03*
X160690000Y-63690000D03*
%TD*%
D51*
%TO.C,SW3*%
X125940000Y-133290000D03*
X125940000Y-125090000D03*
D52*
X125940000Y-131190000D03*
D53*
X125940000Y-129190000D03*
X125940000Y-127190000D03*
%TD*%
D22*
%TO.C,R7*%
X162690000Y-135440000D03*
X160690000Y-135440000D03*
%TD*%
D65*
%TO.C,D10*%
X171932843Y-79438410D03*
D19*
X172801574Y-77051591D03*
%TD*%
M02*
