M48
; DRILL file {KiCad 8.0.2+b1} date 2025-03-29T04:57:45+0200
; FORMAT={-:-/ absolute / inch / decimal}
; #@! TF.CreationDate,2025-03-29T04:57:45+02:00
; #@! TF.GenerationSoftware,Kicad,Pcbnew,8.0.2+b1
; #@! TF.FileFunction,Plated,1,2,PTH
FMAT,2
INCH
; #@! TA.AperFunction,Plated,PTH,ViaDrill
T1C0.0118
; #@! TA.AperFunction,Plated,PTH,ViaDrill
T2C0.0157
; #@! TA.AperFunction,Plated,PTH,ComponentDrill
T3C0.0157
; #@! TA.AperFunction,Plated,PTH,ComponentDrill
T4C0.0315
; #@! TA.AperFunction,Plated,PTH,ComponentDrill
T5C0.0354
; #@! TA.AperFunction,Plated,PTH,ComponentDrill
T6C0.0394
; #@! TA.AperFunction,Plated,PTH,ComponentDrill
T7C0.0433
; #@! TA.AperFunction,Plated,PTH,ComponentDrill
T8C0.0591
; #@! TA.AperFunction,Plated,PTH,ComponentDrill
T9C0.0984
; #@! TA.AperFunction,Plated,PTH,ComponentDrill
T10C0.1260
%
G90
G05
T1
X4.6925Y-4.8402
X4.7417Y-3.5803
X4.7713Y-2.8913
X4.8303Y-4.2102
X5.0862Y-4.8697
X5.1354Y-3.9445
X5.1354Y-5.1846
X5.1551Y-3.3244
X5.3028Y-4.8894
X5.3126Y-4.4465
X5.352Y-2.8028
X5.3717Y-5.2831
X5.5488Y-3.5705
X5.6177Y-4.3874
X5.6669Y-2.3795
X5.6866Y-5.0606
X5.7555Y-2.7634
X5.7654Y-3.3972
X5.7895Y-3.3607
X5.8146Y-5.3717
X5.8736Y-3.5803
X5.8736Y-4.4465
X5.913Y-5.165
X6.0114Y-5.3913
X6.0531Y-3.5335
X6.0803Y-3.4228
X6.1197Y-4.7713
X6.1394Y-2.9504
X6.1417Y-4.252
X6.1477Y-5.376
X6.1689Y-3.3343
X6.1886Y-2.4189
X6.1886Y-2.6453
X6.1984Y-2.222
X6.3264Y-2.3205
X6.4937Y-4.476
X6.5134Y-2.5567
X6.5232Y-4.1118
X6.5331Y-3.4917
X6.5331Y-3.6295
X6.5823Y-3.1472
X6.5823Y-4.7909
X6.5921Y-5.0862
X6.6118Y-5.6374
X6.661Y-5.3126
X6.6807Y-2.9012
X6.7791Y-2.6945
X6.7791Y-5.5193
T2
X5.3323Y-4.1807
X5.7396Y-3.151
X6.0016Y-3.151
T4
X4.9583Y-5.0075
X4.9583Y-5.0862
X4.9583Y-5.165
X5.6374Y-4.0232
X5.6374Y-4.102
X5.6374Y-4.1807
T5
X6.3657Y-5.0364
X6.3657Y-5.1364
X6.6217Y-3.9445
X6.6217Y-4.0445
X6.6217Y-4.161
X6.6217Y-4.261
X6.6275Y-4.3973
X6.6276Y-3.8082
X6.6362Y-4.4969
X6.6363Y-3.7086
X6.6539Y-4.624
X6.6542Y-3.5815
X6.6713Y-4.7225
X6.6715Y-3.483
X6.7009Y-4.851
X6.7013Y-3.3546
X6.7268Y-4.9476
X6.7272Y-3.258
X6.7685Y-5.0781
X6.769Y-3.1275
X6.8027Y-5.1721
X6.8032Y-3.0335
X6.8567Y-5.2955
X6.8573Y-2.9102
X6.8989Y-5.3861
X6.8996Y-2.8196
X6.9564Y-2.7028
X6.9596Y-5.503
X7.0064Y-2.6162
X7.0096Y-5.5896
X7.0752Y-5.7005
X7.0761Y-2.5053
X7.1326Y-5.7825
X7.1335Y-2.4233
T6
X4.2886Y-3.5508
X4.2886Y-3.6598
X4.2886Y-3.7689
X4.2886Y-3.878
X4.3131Y-2.4976
X4.3131Y-2.7535
X4.3131Y-4.6827
X4.3131Y-4.9386
X4.4004Y-3.4963
X4.4004Y-3.6053
X4.4004Y-3.7144
X4.4004Y-3.8234
X4.4004Y-3.9325
X4.4233Y-2.5902
X4.4233Y-4.7752
X4.9286Y-4.11
X4.9286Y-4.21
X4.9286Y-4.31
X5.0286Y-4.11
X5.0286Y-4.21
X5.0286Y-4.31
T7
X4.3652Y-5.598
T8
X4.1673Y-5.4002
X4.1673Y-5.7959
X4.563Y-5.4002
X4.563Y-5.7959
X4.9583Y-4.9248
X4.9583Y-5.2476
X5.6374Y-3.9406
X5.6374Y-4.2634
T9
X4.2029Y-2.3559
X4.2029Y-2.8953
X4.2029Y-4.5409
X4.2029Y-5.0803
T10
X4.3445Y-3.2222
X4.3445Y-4.2065
X4.8402Y-2.3303
X4.8402Y-5.8736
X6.8874Y-2.3303
X6.8874Y-5.8736
T3
G00X5.4404Y-5.6761
M15
G01X5.4404Y-5.7155
M16
G05
G00X5.6176Y-5.8926
M15
G01X5.657Y-5.8926
M16
G05
G00X5.8341Y-5.7155
M15
G01X5.8341Y-5.6761
M16
G05
T4
G00X5.5389Y-5.682
M15
G01X5.5389Y-5.7096
M16
G05
G00X5.7357Y-5.7096
M15
G01X5.7357Y-5.682
M16
G05
T6
G00X4.1714Y-2.5961
M15
G01X4.1714Y-2.6551
M16
G05
G00X4.1714Y-4.7811
M15
G01X4.1714Y-4.8402
M16
G05
G00X5.1472Y-2.4091
M15
G01X5.1472Y-2.4878
M16
G05
G00X5.3717Y-2.3303
M15
G01X5.2929Y-2.3303
M16
G05
G00X5.3717Y-2.5665
M15
G01X5.2929Y-2.5665
M16
G05
M30
