%TF.GenerationSoftware,KiCad,Pcbnew,8.0.2+b1*%
%TF.CreationDate,2025-03-29T04:57:43+02:00*%
%TF.ProjectId,3dglassbox,3364676c-6173-4736-926f-782e6b696361,rev?*%
%TF.SameCoordinates,Original*%
%TF.FileFunction,Soldermask,Bot*%
%TF.FilePolarity,Negative*%
%FSLAX46Y46*%
G04 Gerber Fmt 4.6, Leading zero omitted, Abs format (unit mm)*
G04 Created by KiCad (PCBNEW 8.0.2+b1) date 2025-03-29 04:57:43*
%MOMM*%
%LPD*%
G01*
G04 APERTURE LIST*
G04 Aperture macros list*
%AMRoundRect*
0 Rectangle with rounded corners*
0 $1 Rounding radius*
0 $2 $3 $4 $5 $6 $7 $8 $9 X,Y pos of 4 corners*
0 Add a 4 corners polygon primitive as box body*
4,1,4,$2,$3,$4,$5,$6,$7,$8,$9,$2,$3,0*
0 Add four circle primitives for the rounded corners*
1,1,$1+$1,$2,$3*
1,1,$1+$1,$4,$5*
1,1,$1+$1,$6,$7*
1,1,$1+$1,$8,$9*
0 Add four rect primitives between the rounded corners*
20,1,$1+$1,$2,$3,$4,$5,0*
20,1,$1+$1,$4,$5,$6,$7,0*
20,1,$1+$1,$6,$7,$8,$9,0*
20,1,$1+$1,$8,$9,$2,$3,0*%
%AMRotRect*
0 Rectangle, with rotation*
0 The origin of the aperture is its center*
0 $1 length*
0 $2 width*
0 $3 Rotation angle, in degrees counterclockwise*
0 Add horizontal line*
21,1,$1,$2,0,0,$3*%
G04 Aperture macros list end*
%ADD10C,6.400000*%
%ADD11C,0.900000*%
%ADD12RotRect,1.800000X1.800000X65.000000*%
%ADD13C,1.800000*%
%ADD14RotRect,1.800000X1.800000X100.000000*%
%ADD15RotRect,1.800000X1.800000X95.000000*%
%ADD16C,3.500000*%
%ADD17O,2.000000X3.500000*%
%ADD18C,4.000000*%
%ADD19R,1.600000X1.600000*%
%ADD20C,1.600000*%
%ADD21RoundRect,0.250000X-0.600000X-0.600000X0.600000X-0.600000X0.600000X0.600000X-0.600000X0.600000X0*%
%ADD22C,1.700000*%
%ADD23R,1.800000X1.800000*%
%ADD24R,3.500000X3.500000*%
%ADD25RoundRect,0.750000X-1.000000X0.750000X-1.000000X-0.750000X1.000000X-0.750000X1.000000X0.750000X0*%
%ADD26RoundRect,0.875000X-0.875000X0.875000X-0.875000X-0.875000X0.875000X-0.875000X0.875000X0.875000X0*%
%ADD27RotRect,1.800000X1.800000X80.000000*%
%ADD28RotRect,1.800000X1.800000X105.000000*%
%ADD29RotRect,1.800000X1.800000X110.000000*%
%ADD30RotRect,1.800000X1.800000X115.000000*%
%ADD31RotRect,1.800000X1.800000X120.000000*%
%ADD32RotRect,1.800000X1.800000X125.000000*%
%ADD33O,3.500000X2.200000*%
%ADD34R,2.500000X1.500000*%
%ADD35O,2.500000X1.500000*%
%ADD36RotRect,1.800000X1.800000X75.000000*%
%ADD37C,1.200000*%
%ADD38O,1.200000X2.200000*%
%ADD39O,1.600000X2.300000*%
%ADD40O,2.200000X1.200000*%
%ADD41O,1.600000X2.500000*%
%ADD42RotRect,1.800000X1.800000X85.000000*%
%ADD43RotRect,1.800000X1.800000X55.000000*%
%ADD44RotRect,1.800000X1.800000X60.000000*%
%ADD45RotRect,1.800000X1.800000X70.000000*%
G04 APERTURE END LIST*
D10*
%TO.C,H4*%
X174940000Y-149190000D03*
%TD*%
D11*
%TO.C,SW2*%
X167440000Y-56360000D03*
X164440000Y-56360000D03*
%TD*%
D12*
%TO.C,D2*%
X174176408Y-73918989D03*
D13*
X175249858Y-71616967D03*
%TD*%
D11*
%TO.C,SW4*%
X152440000Y-56360000D03*
X149440000Y-56360000D03*
%TD*%
D14*
%TO.C,D6*%
X169449978Y-119951567D03*
D13*
X169008912Y-117450155D03*
%TD*%
D15*
%TO.C,D13*%
X168559695Y-114221460D03*
D13*
X168338319Y-111691124D03*
%TD*%
D10*
%TO.C,H3*%
X174940000Y-59190000D03*
%TD*%
D16*
%TO.C,J6*%
X106752500Y-115340000D03*
D17*
X105952500Y-122190000D03*
D16*
X106752500Y-129040000D03*
D13*
X109552500Y-125440000D03*
X109552500Y-118940000D03*
X112352500Y-121290000D03*
%TD*%
D10*
%TO.C,H2*%
X122940000Y-149190000D03*
%TD*%
D18*
%TO.C,J2*%
X110350331Y-81845000D03*
X110350331Y-106845000D03*
D19*
X111770331Y-88805000D03*
D20*
X111770331Y-91575000D03*
X111770331Y-94345000D03*
X111770331Y-97115000D03*
X111770331Y-99885000D03*
X108930331Y-90190000D03*
X108930331Y-92960000D03*
X108930331Y-95730000D03*
X108930331Y-98500000D03*
%TD*%
D21*
%TO.C,J4*%
X125187500Y-104395000D03*
D22*
X127727500Y-104395000D03*
X125187500Y-106935000D03*
X127727500Y-106935000D03*
X125187500Y-109475000D03*
X127727500Y-109475000D03*
%TD*%
D23*
%TO.C,D12*%
X168190000Y-102730001D03*
D13*
X168190000Y-100190000D03*
%TD*%
D16*
%TO.C,J1*%
X106752500Y-59840000D03*
D17*
X105952500Y-66690000D03*
D16*
X106752500Y-73540000D03*
D13*
X109552500Y-69940000D03*
X109552500Y-63440000D03*
X112352500Y-65790000D03*
%TD*%
D24*
%TO.C,J3*%
X135440000Y-65190000D03*
D25*
X135440000Y-59190000D03*
D26*
X130740000Y-62190000D03*
%TD*%
D27*
%TO.C,D11*%
X169015858Y-90970455D03*
D13*
X169456924Y-88469043D03*
%TD*%
D28*
%TO.C,D14*%
X170859784Y-125668572D03*
D13*
X170202384Y-123215120D03*
%TD*%
D23*
%TO.C,D18*%
X161690000Y-130465000D03*
D13*
X161690000Y-127925000D03*
%TD*%
D29*
%TO.C,D7*%
X172787894Y-131370824D03*
D13*
X171919163Y-128984005D03*
%TD*%
D30*
%TO.C,D15*%
X175232953Y-136806782D03*
D13*
X174159503Y-134504760D03*
%TD*%
D31*
%TO.C,D8*%
X178043479Y-141975033D03*
D13*
X176773479Y-139775328D03*
%TD*%
D23*
%TO.C,D5*%
X168190000Y-108230001D03*
D13*
X168190000Y-105690000D03*
%TD*%
D24*
%TO.C,J7*%
X110875000Y-142190000D03*
D18*
X105850000Y-147215000D03*
X115900000Y-147215000D03*
X105850000Y-137165000D03*
X115900000Y-137165000D03*
%TD*%
D32*
%TO.C,D16*%
X181167866Y-146874295D03*
D13*
X179710982Y-144793649D03*
%TD*%
D33*
%TO.C,SW1*%
X143190000Y-108290000D03*
X143190000Y-100090000D03*
D34*
X143190000Y-106190000D03*
D35*
X143190000Y-104190000D03*
X143190000Y-102190000D03*
%TD*%
D36*
%TO.C,D3*%
X170212736Y-85206245D03*
D13*
X170870136Y-82752793D03*
%TD*%
D37*
%TO.C,J8*%
X138187260Y-149672873D03*
X138187260Y-152172873D03*
X143187260Y-144672873D03*
X148187260Y-149672873D03*
X148187260Y-152172873D03*
D38*
X138187260Y-144672873D03*
D39*
X140687260Y-144672873D03*
D40*
X143187260Y-149672873D03*
D38*
X148187260Y-144672873D03*
D41*
X145687260Y-144672873D03*
%TD*%
D10*
%TO.C,H1*%
X122940000Y-59190000D03*
%TD*%
D42*
%TO.C,D4*%
X168341806Y-96729029D03*
D13*
X168563181Y-94198694D03*
%TD*%
D43*
%TO.C,D1*%
X179733925Y-63633588D03*
D13*
X181190810Y-61552942D03*
%TD*%
D44*
%TO.C,D9*%
X176693478Y-68650034D03*
D13*
X177963478Y-66450329D03*
%TD*%
D33*
%TO.C,SW3*%
X125940000Y-133290000D03*
X125940000Y-125090000D03*
D34*
X125940000Y-131190000D03*
D35*
X125940000Y-129190000D03*
X125940000Y-127190000D03*
%TD*%
D45*
%TO.C,D10*%
X171932843Y-79438410D03*
D13*
X172801574Y-77051591D03*
%TD*%
M02*
